<?xml version="1.0" standalone="no"?>
<!DOCTYPE svg PUBLIC "-//W3C//DTD SVG 20010904//EN"
 "http://www.w3.org/TR/2001/REC-SVG-20010904/DTD/svg10.dtd">
<svg version="1.0" xmlns="http://www.w3.org/2000/svg"
 width="640.000000pt" height="640.000000pt" viewBox="0 0 640.000000 640.000000"
 preserveAspectRatio="xMidYMid meet">
<metadata>
Created by potrace 1.11, written by Peter Selinger 2001-2013
</metadata>
<g transform="translate(0.000000,640.000000) scale(0.100000,-0.100000)"
fill="#000000" stroke="none">
<path d="M0 3200 l0 -3200 3200 0 3200 0 0 3200 0 3200 -3200 0 -3200 0 0
-3200z m6250 0 l0 -3050 -3050 0 -3050 0 0 3050 0 3050 3050 0 3050 0 0 -3050z"/>
<path d="M1995 3690 c90 -86 122 -197 91 -318 -32 -128 -117 -198 -266 -222
-39 -6 -309 -10 -672 -10 l-608 0 0 -125 0 -125 273 0 272 0 -81 -44 c-327
-176 -477 -428 -461 -776 7 -142 23 -215 73 -315 69 -141 204 -270 373 -355
141 -70 206 -85 376 -85 126 0 163 4 230 23 282 81 487 282 567 558 20 67 23
102 23 234 0 134 -3 165 -23 230 -36 113 -88 203 -164 285 -84 90 -144 135
-263 197 l-90 47 67 1 c147 0 263 46 350 138 30 32 65 77 77 100 51 99 66 252
36 367 -32 121 -132 245 -199 245 l-35 0 54 -50z m-450 -825 c168 -43 356
-178 422 -302 54 -100 68 -164 67 -303 -1 -245 -75 -401 -249 -526 -134 -95
-266 -138 -430 -138 -198 0 -324 53 -466 194 -68 68 -94 102 -128 170 -42 86
-70 198 -71 288 0 70 29 192 65 267 123 258 337 383 635 370 52 -2 122 -11
155 -20z"/>
<path d="M1294 2386 c-17 -8 -44 -31 -60 -52 -25 -33 -29 -46 -29 -105 0 -75
16 -106 75 -146 64 -44 172 -20 222 49 32 45 33 153 2 195 -51 68 -134 92
-210 59z"/>
<path d="M5555 3690 c90 -86 122 -197 91 -318 -32 -128 -117 -198 -266 -222
-39 -6 -309 -10 -672 -10 l-608 0 0 -125 0 -125 273 0 272 0 -81 -44 c-327
-176 -477 -428 -461 -776 7 -142 23 -215 73 -315 69 -141 204 -270 373 -355
141 -70 206 -85 376 -85 126 0 163 4 230 23 282 81 487 282 567 558 20 67 23
102 23 234 0 134 -3 165 -23 230 -36 113 -88 203 -164 285 -84 90 -144 135
-263 197 l-90 47 67 1 c147 0 263 46 350 138 30 32 65 77 77 100 51 99 66 252
36 367 -32 121 -132 245 -199 245 l-35 0 54 -50z m-450 -825 c168 -43 356
-178 422 -302 54 -100 68 -164 67 -303 -1 -245 -75 -401 -249 -526 -134 -95
-266 -138 -430 -138 -198 0 -324 53 -466 194 -68 68 -94 102 -128 170 -42 86
-70 198 -71 288 0 70 29 192 65 267 123 258 337 383 635 370 52 -2 122 -11
155 -20z"/>
<path d="M4854 2386 c-17 -8 -44 -31 -60 -52 -25 -33 -29 -46 -29 -105 0 -75
16 -106 75 -146 64 -44 172 -20 222 49 32 45 33 153 2 195 -51 68 -134 92
-210 59z"/>
<path d="M2489 977 c-20 -12 -56 -37 -80 -55 -24 -19 -50 -37 -58 -42 -12 -7
-13 -15 -3 -49 7 -22 23 -53 36 -68 l24 -28 724 -3 723 -2 38 50 c48 64 47 86
-3 135 l-41 40 -432 6 c-335 5 -451 10 -517 22 -54 11 -139 17 -230 17 -133 0
-148 -2 -181 -23z"/>
</g>
</svg>
